<svg xmlns="http://www.w3.org/2000/svg" xmlns:xlink="http://www.w3.org/1999/xlink" version="1.1" x="0px" y="0px" width="100px" height="100px" viewBox="5.0 -10.0 100.0 135.0" enable-background="new 0 0 100 100" xml:space="preserve">
<g id="Captions">
</g>
<g id="Your_Icon">
	<path d="M70.953,87.297H28.885V13.326h42.068V87.297z M64.845,8.162c0,0.345-0.279,0.622-0.623,0.622   c-0.345,0-0.623-0.277-0.623-0.622c0-0.343,0.278-0.621,0.623-0.621C64.565,7.541,64.845,7.819,64.845,8.162 M59.725,7.414   c0,0.499-0.404,0.902-0.902,0.902s-0.9-0.403-0.9-0.902c0-0.497,0.402-0.901,0.9-0.901S59.725,6.917,59.725,7.414 M57.164,7.414   c0,0.344-0.276,0.623-0.622,0.623c-0.343,0-0.621-0.279-0.621-0.623c0-0.343,0.278-0.622,0.621-0.622   C56.888,6.792,57.164,7.071,57.164,7.414 M54.729,7.974H44.728V7.541h10.002V7.974z M42.835,7.414c0,0.344-0.278,0.623-0.622,0.623   c-0.341,0-0.622-0.279-0.622-0.623c0-0.343,0.281-0.622,0.622-0.622C42.557,6.792,42.835,7.071,42.835,7.414 M44.532,90.572   c0-1.146,1.146-1.146,1.146-1.146h8.137c1.144,0,1.144,1.146,1.144,1.146v0.835c0,1.146-1.144,1.146-1.144,1.146h-8.137   c-1.146,0-1.146-1.146-1.146-1.146V90.572z M73.278,33.116v-7.083h-0.812V12.568c0,0,0-7.568-7.568-7.568H34.941   c0,0-7.571,0-7.571,7.568v5.842h-0.648v15.247h0.648v52.691c0,0,0,8.651,8.652,8.651h27.793c0,0,8.65,0,8.65-8.651V33.116H73.278z"/>
</g>
<text x="0.0" y="117.5" font-size="5.0" font-weight="bold" font-family="Helvetica Neue, Helvetica, Arial-Unicode, Arial, Sans-serif" fill="#000000">Created by Chris Tucker</text><text x="0.0" y="122.5" font-size="5.0" font-weight="bold" font-family="Helvetica Neue, Helvetica, Arial-Unicode, Arial, Sans-serif" fill="#000000">from the Noun Project</text></svg>