<svg xmlns="http://www.w3.org/2000/svg" xmlns:xlink="http://www.w3.org/1999/xlink" version="1.1" id="Layer_1" x="0px" y="0px" width="100px" height="100px" viewBox="5.0 -10.0 100.0 135.0" enable-background="new 0 0 100 100" xml:space="preserve">
<g>
	<g>
		<rect x="28" y="22" fill="#000000" width="1" height="3"/>
	</g>
	<g>
		<rect x="28" y="28" fill="#000000" width="1" height="4"/>
	</g>
	<g>
		<rect x="28" y="34" fill="#000000" width="1" height="4"/>
	</g>
	<g>
		<rect x="55" y="7" fill="#000000" width="8" height="1"/>
	</g>
	<g>
		<path fill="#000000" d="M55.5,17h-8c-0.8,0-1.5-0.7-1.5-1.5s0.7-1.5,1.5-1.5h8c0.8,0,1.5,0.7,1.5,1.5S56.3,17,55.5,17z M47.5,15    c-0.3,0-0.5,0.2-0.5,0.5s0.2,0.5,0.5,0.5h8c0.3,0,0.5-0.2,0.5-0.5S55.8,15,55.5,15H47.5z"/>
	</g>
	<g>
		<path fill="#000000" d="M43.5,17c-0.8,0-1.5-0.7-1.5-1.5s0.7-1.5,1.5-1.5s1.5,0.7,1.5,1.5S44.3,17,43.5,17z M43.5,15    c-0.3,0-0.5,0.2-0.5,0.5s0.2,0.5,0.5,0.5s0.5-0.2,0.5-0.5S43.8,15,43.5,15z"/>
	</g>
	<g>
		<path fill="#000000" d="M65.5,89h-30c-3.6,0-6.5-2.9-6.5-6.5v-68c0-3.6,2.9-6.5,6.5-6.5h30c3.6,0,6.5,2.9,6.5,6.5v68    C72,86.1,69.1,89,65.5,89z M35.5,9c-3,0-5.5,2.5-5.5,5.5v68c0,3,2.5,5.5,5.5,5.5h30c3,0,5.5-2.5,5.5-5.5v-68c0-3-2.5-5.5-5.5-5.5    H35.5z"/>
	</g>
	<g>
		<path fill="#000000" d="M68.5,75h-36c-0.8,0-1.5-0.7-1.5-1.5v-51c0-0.8,0.7-1.5,1.5-1.5h36c0.8,0,1.5,0.7,1.5,1.5v51    C70,74.3,69.3,75,68.5,75z M32.5,22c-0.3,0-0.5,0.2-0.5,0.5v51c0,0.3,0.2,0.5,0.5,0.5h36c0.3,0,0.5-0.2,0.5-0.5v-51    c0-0.3-0.2-0.5-0.5-0.5H32.5z"/>
	</g>
	<g>
		<g>
			<path fill="#000000" d="M50.5,85.5c-2.2,0-4-1.8-4-4s1.8-4,4-4s4,1.8,4,4S52.7,85.5,50.5,85.5z M50.5,78.5c-1.7,0-3,1.3-3,3     s1.3,3,3,3s3-1.3,3-3S52.2,78.5,50.5,78.5z"/>
		</g>
		<g>
			<path fill="#000000" d="M50.8,83.5h-0.6c-1,0-1.7-0.8-1.7-1.7v-0.6c0-1,0.8-1.7,1.7-1.7h0.6c1,0,1.7,0.8,1.7,1.7v0.6     C52.5,82.7,51.7,83.5,50.8,83.5z M50.2,80.5c-0.4,0-0.7,0.3-0.7,0.7v0.6c0,0.4,0.3,0.7,0.7,0.7h0.6c0.4,0,0.7-0.3,0.7-0.7v-0.6     c0-0.4-0.3-0.7-0.7-0.7H50.2z"/>
		</g>
	</g>
</g>
<text x="0.0" y="117.5" font-size="5.0" font-weight="bold" font-family="Helvetica Neue, Helvetica, Arial-Unicode, Arial, Sans-serif" fill="#000000">Created by Yaroslav Samoilov</text><text x="0.0" y="122.5" font-size="5.0" font-weight="bold" font-family="Helvetica Neue, Helvetica, Arial-Unicode, Arial, Sans-serif" fill="#000000">from the Noun Project</text></svg>