<svg xmlns="http://www.w3.org/2000/svg" xmlns:xlink="http://www.w3.org/1999/xlink" version="1.1" id="Layer_1" x="0px" y="0px" width="100px" height="100px" viewBox="5.0 -10.0 100.0 135.0" enable-background="new 0 0 100 100" xml:space="preserve">
<g>
	<rect x="29" y="21" fill="#000000" width="1" height="3"/>
</g>
<g>
	<rect x="29" y="27" fill="#000000" width="1" height="4"/>
</g>
<g>
	<rect x="29" y="33" fill="#000000" width="1" height="4"/>
</g>
<line fill="#000000" stroke="#5D5D5D" stroke-miterlimit="10" x1="56" y1="6.5" x2="64" y2="6.5"/>
<g>
	<path fill="#000000" d="M56.5,16h-8c-0.8,0-1.5-0.7-1.5-1.5s0.7-1.5,1.5-1.5h8c0.8,0,1.5,0.7,1.5,1.5S57.3,16,56.5,16z M48.5,14   c-0.3,0-0.5,0.2-0.5,0.5s0.2,0.5,0.5,0.5h8c0.3,0,0.5-0.2,0.5-0.5S56.8,14,56.5,14H48.5z"/>
</g>
<g>
	<path fill="#000000" d="M44.5,16c-0.8,0-1.5-0.7-1.5-1.5s0.7-1.5,1.5-1.5s1.5,0.7,1.5,1.5S45.3,16,44.5,16z M44.5,14   c-0.3,0-0.5,0.2-0.5,0.5s0.2,0.5,0.5,0.5s0.5-0.2,0.5-0.5S44.8,14,44.5,14z"/>
</g>
<g>
	<path fill="#000000" d="M66.5,96h-30c-3.6,0-6.5-2.9-6.5-6.5v-76C30,9.9,32.9,7,36.5,7h30c3.6,0,6.5,2.9,6.5,6.5v76   C73,93.1,70.1,96,66.5,96z M36.5,8c-3,0-5.5,2.5-5.5,5.5v76c0,3,2.5,5.5,5.5,5.5h30c3,0,5.5-2.5,5.5-5.5v-76c0-3-2.5-5.5-5.5-5.5   H36.5z"/>
</g>
<g>
	<path fill="#000000" d="M69.5,82h-36c-0.8,0-1.5-0.7-1.5-1.5v-59c0-0.8,0.7-1.5,1.5-1.5h36c0.8,0,1.5,0.7,1.5,1.5v59   C71,81.3,70.3,82,69.5,82z M33.5,21c-0.3,0-0.5,0.2-0.5,0.5v59c0,0.3,0.2,0.5,0.5,0.5h36c0.3,0,0.5-0.2,0.5-0.5v-59   c0-0.3-0.2-0.5-0.5-0.5H33.5z"/>
</g>
<g>
	<g>
		<path fill="#000000" d="M51.5,92.5c-2.2,0-4-1.8-4-4s1.8-4,4-4s4,1.8,4,4S53.7,92.5,51.5,92.5z M51.5,85.5c-1.7,0-3,1.3-3,3    s1.3,3,3,3s3-1.3,3-3S53.2,85.5,51.5,85.5z"/>
	</g>
</g>
<text x="0.0" y="117.5" font-size="5.0" font-weight="bold" font-family="Helvetica Neue, Helvetica, Arial-Unicode, Arial, Sans-serif" fill="#000000">Created by Yaroslav Samoilov</text><text x="0.0" y="122.5" font-size="5.0" font-weight="bold" font-family="Helvetica Neue, Helvetica, Arial-Unicode, Arial, Sans-serif" fill="#000000">from the Noun Project</text></svg>