<svg xmlns="http://www.w3.org/2000/svg" xmlns:xlink="http://www.w3.org/1999/xlink" version="1.1" id="Layer_1" x="0px" y="0px" width="100px" height="100px" viewBox="5.0 -10.0 100.0 135.0" enable-background="new 0 0 100 100" xml:space="preserve">
<g>
	<g>
		<rect x="27" y="21" fill="#000000" width="1" height="4"/>
	</g>
	<g>
		<rect x="27" y="28" fill="#000000" width="1" height="5"/>
	</g>
	<g>
		<rect x="27" y="35" fill="#000000" width="1" height="5"/>
	</g>
</g>
<g>
	<path fill="#000000" d="M49.5,92.5c-2.2,0-4-1.8-4-4s1.8-4,4-4s4,1.8,4,4S51.7,92.5,49.5,92.5z M49.5,85.5c-1.7,0-3,1.3-3,3   s1.3,3,3,3s3-1.3,3-3S51.2,85.5,49.5,85.5z"/>
</g>
<g>
	<path fill="#000000" d="M62.5,95h-26c-4.7,0-8.5-3.8-8.5-8.5v-72C28,9.8,31.8,6,36.5,6h26c4.7,0,8.5,3.8,8.5,8.5v72   C71,91.2,67.2,95,62.5,95z M36.5,7c-4.1,0-7.5,3.4-7.5,7.5v72c0,4.1,3.4,7.5,7.5,7.5h26c4.1,0,7.5-3.4,7.5-7.5v-72   c0-4.1-3.4-7.5-7.5-7.5H36.5z"/>
</g>
<g>
	<path fill="#000000" d="M69,83H30V18h39V83z M31,82h37V19H31V82z"/>
</g>
<g>
	<line fill="#000000" stroke="#5D5D5D" stroke-miterlimit="10" x1="47" y1="13.5" x2="55" y2="13.5"/>
	<line fill="#000000" stroke="#5D5D5D" stroke-miterlimit="10" x1="45" y1="13.5" x2="44" y2="13.5"/>
	<line fill="#000000" stroke="#5D5D5D" stroke-miterlimit="10" x1="50" y1="10.5" x2="49" y2="10.5"/>
</g>
<g>
	<rect x="71" y="25" fill="#000000" width="1" height="7"/>
</g>
<text x="0.0" y="117.5" font-size="5.0" font-weight="bold" font-family="Helvetica Neue, Helvetica, Arial-Unicode, Arial, Sans-serif" fill="#000000">Created by Yaroslav Samoilov</text><text x="0.0" y="122.5" font-size="5.0" font-weight="bold" font-family="Helvetica Neue, Helvetica, Arial-Unicode, Arial, Sans-serif" fill="#000000">from the Noun Project</text></svg>