<svg xmlns="http://www.w3.org/2000/svg" xmlns:xlink="http://www.w3.org/1999/xlink" version="1.1" id="Layer_1" x="0px" y="0px" width="100px" height="100px" viewBox="5.0 -10.0 100.0 135.0" enable-background="new 0 0 100 100" xml:space="preserve">
<g>
	<path fill="#000000" d="M50,95.5c-2.2,0-4-1.8-4-4s1.8-4,4-4s4,1.8,4,4S52.2,95.5,50,95.5z M50,88.5c-1.7,0-3,1.3-3,3s1.3,3,3,3   s3-1.3,3-3S51.7,88.5,50,88.5z"/>
</g>
<g>
	<path fill="#000000" d="M64.5,98h-29c-4.7,0-8.5-3.8-8.5-8.5v-79C27,5.8,30.8,2,35.5,2h29c4.7,0,8.5,3.8,8.5,8.5v79   C73,94.2,69.2,98,64.5,98z M35.5,3C31.4,3,28,6.4,28,10.5v79c0,4.1,3.4,7.5,7.5,7.5h29c4.1,0,7.5-3.4,7.5-7.5v-79   C72,6.4,68.6,3,64.5,3H35.5z"/>
</g>
<g>
	<path fill="#000000" d="M71,86H29V15h42V86z M30,85h40V16H30V85z"/>
</g>
<g>
	<line fill="#000000" stroke="#5D5D5D" stroke-miterlimit="10" x1="48" y1="11.5" x2="56" y2="11.5"/>
	<line fill="#000000" stroke="#5D5D5D" stroke-miterlimit="10" x1="46" y1="11.5" x2="45" y2="11.5"/>
	<line fill="#000000" stroke="#5D5D5D" stroke-miterlimit="10" x1="51" y1="8.5" x2="50" y2="8.5"/>
</g>
<g>
	<rect x="73" y="19" fill="#000000" width="1" height="7"/>
</g>
<g>
	<g>
		<rect x="26" y="20" fill="#000000" width="1" height="4"/>
	</g>
	<g>
		<rect x="26" y="27" fill="#000000" width="1" height="5"/>
	</g>
	<g>
		<rect x="26" y="34" fill="#000000" width="1" height="5"/>
	</g>
</g>
<text x="0.0" y="117.5" font-size="5.0" font-weight="bold" font-family="Helvetica Neue, Helvetica, Arial-Unicode, Arial, Sans-serif" fill="#000000">Created by Yaroslav Samoilov</text><text x="0.0" y="122.5" font-size="5.0" font-weight="bold" font-family="Helvetica Neue, Helvetica, Arial-Unicode, Arial, Sans-serif" fill="#000000">from the Noun Project</text></svg>