<svg xmlns="http://www.w3.org/2000/svg" xmlns:xlink="http://www.w3.org/1999/xlink" version="1.1" x="0px" y="0px" viewBox="0 0 177 177" enable-background="new 0 0 177 177" xml:space="preserve" height="100px" width="100px">
<g id="Layer_1">
	<rect x="-291.321" y="-55.658" display="none" fill="#000000" width="429.944" height="210.966"/>
	<polygon display="none" fill="#000000" points="-75.297,26.947 -77.402,26.947 -77.402,26.291  "/>
</g>
<g id="Tabs">
	<g id="Surface">
	</g>
	<g id="ActiveTab">
	</g>
	<g id="nexus_7">
	</g>
</g>
<g id="Phones">
	<g id="Iphone">
	</g>
	<g id="Galaxy">
		<path d="M110.576,9.994H66.424c-9.863,0-17.859,7.996-17.859,17.859v121.294c0,9.863,7.996,17.859,17.859,17.859h44.152    c9.863,0,17.859-7.996,17.859-17.859V27.853C128.435,17.99,120.439,9.994,110.576,9.994z M112.312,16.815    c1.164,0,2.108,0.944,2.108,2.108c0,1.164-0.944,2.108-2.108,2.108c-1.164,0-2.108-0.944-2.108-2.108    C110.204,17.759,111.148,16.815,112.312,16.815z M105.199,17.671c0.692,0,1.252,0.561,1.252,1.252s-0.561,1.252-1.252,1.252    s-1.252-0.561-1.252-1.252S104.507,17.671,105.199,17.671z M101.354,17.671c0.692,0,1.252,0.561,1.252,1.252    s-0.561,1.252-1.252,1.252c-0.692,0-1.252-0.561-1.252-1.252S100.662,17.671,101.354,17.671z M81.059,15.699h15.255    c0.411,0,0.744,0.333,0.744,0.744s-0.333,0.744-0.744,0.744H81.059c-0.411,0-0.744-0.333-0.744-0.744S80.648,15.699,81.059,15.699    z M97.678,158.883c0,1.267-1.027,2.294-2.294,2.294H82.485c-1.267,0-2.294-1.027-2.294-2.294c0-0.138,0.017-0.271,0.041-0.402    c-0.025-0.11-0.041-0.224-0.041-0.342c0-0.856,0.694-1.55,1.55-1.55h0.744h12.898h0.744c0.856,0,1.55,0.694,1.55,1.55    c0,0.118-0.016,0.231-0.041,0.342C97.66,158.611,97.678,158.745,97.678,158.883z M123.474,147.369H53.526V24.753h69.948V147.369z"/>
	</g>
	<g id="HTCONE">
	</g>
	<g id="MOTOROLARAZZOR_MAXHD">
	</g>
	<g id="Samsung_ActiveS">
	</g>
	<g id="LG_Optimus_G">
	</g>
	<g id="HTCMax">
	</g>
</g>
</svg>